<?xml version="1.0" encoding="UTF-8"?>
<!-- Generator: Adobe Illustrator 19.1.0, SVG Export Plug-In . SVG Version: 6.00 Build 0)  -->
<svg version="1.1" id="Layer_1" xmlns="http://www.w3.org/2000/svg" xmlns:xlink="http://www.w3.org/1999/xlink" x="0px" y="0px" viewBox="0 0 792.1 246" style="enable-background:new 0 0 792.1 246;" xml:space="preserve">
<style type="text/css">
	.st0{fill:#3359DF;}
</style>
<g>
	<path class="st0" d="M470.4,131.4v49.4c0,1.4-0.9,2.3-2.3,2.3h-12c-1.3,0-2.3-0.9-2.3-2.3v-45.6c0-14.7-6.8-22.4-19.6-22.4   c-12.1,0-20.2,8.6-20.2,21.5v46.6c0,1.4-0.9,2.3-2.3,2.3h-12c-1.3,0-2.3-0.9-2.3-2.3v-79.2c0-1.3,0.9-2.3,2.3-2.3h12   c1.3,0,2.3,0.9,2.3,2.3v7.1c5-7.3,14-11.5,24.9-11.5C458.3,97.2,470.4,110.3,470.4,131.4z M644.1,121.5c1.8,5.6,2.8,11.6,2.8,25.8   c0,1.4-1,2.3-2.5,2.3h-56.8c-0.5,0-0.7,0.2-0.7,0.7c0,0.3,0.3,2.5,0.9,4.3c3.2,10,11.8,14.8,22.9,14.8c11.8,0,18.9-5.3,22.7-9.8   c1.2-1.2,2.3-1.3,3.4-0.4l7.7,7c1.1,0.8,1.2,2,0.2,3.2c-7.8,9.9-20.7,15.5-35.4,15.5c-18.2,0-32.1-9.3-37-25l-0.2-0.5   c-1.5-5.4-2.4-10.7-2.4-16.4c0-10.1,1.1-15.9,3-21.6c5-15.5,18-24.4,35.6-24.4C626,97,639,105.9,644.1,121.5z M586.6,135.5   c0,0.5,0.2,0.7,0.7,0.7h42c0.5,0,1.5-0.2,1.5-0.7c0-4.2-0.4-7.3-1.3-10c-2.9-8.7-10.3-13.8-20.2-13.8c-9.9,0-18.1,5-21,13.8   C587.4,128.2,586.6,131.2,586.6,135.5z M687.4,168.3h-3.6c-6.2,0-8.6-2.6-8.6-9.5V63.7c0-1.4,0-2.3,0-2.3H661   c-1.4,0-2.3,0.9-2.3,2.3v96c0,16.8,6.7,24,22.3,24h6.4c1.3,0,2.3-0.9,2.3-2.3v-10.9C689.7,169.3,688.7,168.3,687.4,168.3z    M776.3,172.6v11.2l-11-0.1c-8.9,0-11-2.5-11.5-9.5c-5,6.8-14.3,10.6-26,10.6c-18.9,0-30.6-10.5-30.6-27.4   c0-18.4,12.2-28.1,35.4-28.1h20.4c0.5,0,0.7-0.2,0.7-0.7c-0.1-10.7-3.6-17.5-21.1-17.5c-8.8,0-15.4,2.5-21.5,6.8   c-1.1,0.9-2.6,0.8-3.2-0.3l-5.1-8.6c-0.6-1.3-0.5-2.2,0.5-3.1c7.4-5.8,18.3-9.5,30.8-9.5c25.6,0,35.6,9.2,35.6,31.5v37.7   c0.2,4,1.1,4.9,4.5,4.9C775.5,170.6,776.3,171.4,776.3,172.6z M753.8,153.4v-9.9c0-0.5-0.2-0.7-0.7-0.7h-18   c-15.3,0-21.9,4.2-21.9,14.2c0,8.8,6.5,13.6,18.3,13.6C745.5,170.6,753.8,164.1,753.8,153.4z M558.5,61.1c0,0,0,0.9,0,2.3v117.1   c0,1.4-1,2.3-2.3,2.3h-12c-1.4,0-2.3-0.9-2.3-2.3v-4.1c-3.9,5.3-13.1,8.4-25.2,8.4c-15.3,0-26.6-7.3-32.2-21.8   c-2.7-7-3.1-15.2-3.4-21.4c-0.4-8.8,0.8-15.4,3-22.1c4.7-14.2,17.3-22.5,33.3-22.5c10.8,0,20.3,2.9,24.4,7.8V63.4   c0-1.3,0.9-2.3,2.3-2.3H558.5z M542.2,133.5c0-12.5-10-22.6-22.2-22.6c-12.3,0-22.2,9.9-22.2,25.6v3.8c0,0.6,0,1.2,0,1.8   c0,0.5,0,0.9,0,1.3v2.5c0,15.9,10,24.7,22.2,24.7c12.3,0,22.2-10.1,22.2-22.6V133.5z M387.8,182.4c-0.3,0.4-0.9,0.7-1.6,0.7h-13.1   c-1.3,0-2.2-0.7-2.8-2.2l-10.5-25.7h-24.6h0h-24.6l-10.5,25.7c-0.6,1.5-1.5,2.2-2.8,2.2h-13.1c-0.7,0-1.2-0.2-1.6-0.7   c-0.3-0.5,1.3-4,1.3-4l42.6-105.6c1-2.7,3.4-7.4,8.6-7.4c5.2,0,7.7,4.7,8.6,7.4l42.7,105.6C386.5,178.4,388.1,181.9,387.8,182.4z    M353.6,139.1l-18.4-44.5v0l0,0l0,0v0l-18.3,44.5h18.3h0H353.6z M159.8,46.1c0,0-21.9-25.9-24.2-28.6c-2.2-2.6-4.3-5.2-7.6-5.3v0   c0,0,0,0,0,0c0,0,0,0,0,0v0c-3.4,0.1-5.4,2.7-7.7,5.3c-2.3,2.7-24.2,28.6-24.2,28.6l18.3,9.9l13.6-16.7l13.6,16.7L159.8,46.1z    M96.1,199.9c0,0,21.9,25.9,24.2,28.6c2.2,2.6,4.3,5.2,7.6,5.3v0c0,0,0,0,0,0c0,0,0,0,0,0v0c3.4-0.1,5.4-2.7,7.6-5.3   c2.2-2.7,24.2-28.6,24.2-28.6l-18.3-9.9l-13.6,16.7L114.4,190L96.1,199.9z M96.1,46.1c0,0-33.8-2.8-37.3-3.1   c-3.4-0.3-6.7-0.7-9.2,1.6l0,0c0,0,0,0,0,0c0,0,0,0,0,0l0,0c-2.3,2.4-1.9,5.8-1.7,9.2c0.3,3.5,3.1,37.3,3.1,37.3l20-5.9l-2.2-21.4   l21.4,2.2L96.1,46.1z M159.8,199.9c0,0,33.8,2.8,37.3,3.1c3.4,0.3,6.7,0.7,9.2-1.6l0,0c0,0,0,0,0,0c0,0,0,0,0,0l0,0   c2.3-2.4,1.9-5.8,1.7-9.2c-0.3-3.5-3.1-37.3-3.1-37.3l-20,5.9l2.2,21.4l-21.4-2.2L159.8,199.9z M51,91.2c0,0-25.9,21.9-28.6,24.2   c-2.6,2.2-5.2,4.3-5.3,7.6h0c0,0,0,0,0,0c0,0,0,0,0,0h0c0.1,3.4,2.7,5.4,5.3,7.7C25.1,133,51,154.9,51,154.9l9.9-18.3L44.3,123   L61,109.5L51,91.2z M204.8,154.9c0,0,25.9-21.9,28.6-24.2c2.6-2.2,5.2-4.3,5.3-7.6h0c0,0,0,0,0,0c0,0,0,0,0,0l0,0   c-0.1-3.4-2.7-5.4-5.3-7.6c-2.7-2.2-28.6-24.2-28.6-24.2l-9.9,18.3l16.7,13.6l-16.7,13.6L204.8,154.9z M51,154.9   c0,0-2.8,33.8-3.1,37.3c-0.3,3.4-0.7,6.7,1.6,9.2l0,0c0,0,0,0,0,0c0,0,0,0,0,0l0,0c2.4,2.3,5.8,1.9,9.2,1.7   c3.5-0.3,37.3-3.1,37.3-3.1l-5.9-20l-21.4,2.2l2.2-21.4L51,154.9z M204.8,91.2c0,0,2.8-33.8,3.1-37.3c0.3-3.4,0.7-6.7-1.7-9.2l0,0   c0,0,0,0,0,0c0,0,0,0,0,0l0,0c-2.4-2.3-5.7-1.9-9.2-1.7c-3.5,0.3-37.3,3.1-37.3,3.1l5.9,20l21.4-2.2l-2.2,21.4L204.8,91.2z"/>
</g>
</svg>